<?xml version="1.0" encoding="UTF-8"?>
<svg width="155px" height="149px" viewBox="0 0 155 149" version="1.1" xmlns="http://www.w3.org/2000/svg" xmlns:xlink="http://www.w3.org/1999/xlink">
    <!-- Generator: Sketch 64 (93537) - https://sketch.com -->
    <title>Create route</title>
    <desc>Created with Sketch.</desc>
    <defs>
        <linearGradient x1="79.7295714%" y1="2.38206327%" x2="-124.277286%" y2="-7.83312449%" id="linearGradient-1">
            <stop stop-color="#34C8C3" offset="0%"></stop>
            <stop stop-color="#99D8DC" offset="100%"></stop>
        </linearGradient>
        <linearGradient x1="224.635294%" y1="4.28978824%" x2="22.6757647%" y2="-5.54663529%" id="linearGradient-2">
            <stop stop-color="#34C8C3" offset="0%"></stop>
            <stop stop-color="#99D8DC" offset="100%"></stop>
        </linearGradient>
        <linearGradient x1="82.1851613%" y1="41.1854805%" x2="13.4794839%" y2="61.5862601%" id="linearGradient-3">
            <stop stop-color="#BBE3EE" offset="0%"></stop>
            <stop stop-color="#EAFAFF" offset="100%"></stop>
        </linearGradient>
        <linearGradient x1="50.0027348%" y1="0%" x2="50.0027348%" y2="100%" id="linearGradient-4">
            <stop stop-color="#59B67E" stop-opacity="0" offset="0%"></stop>
            <stop stop-color="#59B67E" stop-opacity="0.6" offset="100%"></stop>
        </linearGradient>
        <linearGradient x1="49.9997265%" y1="0%" x2="49.9997265%" y2="100%" id="linearGradient-5">
            <stop stop-color="#FDC650" stop-opacity="0" offset="0%"></stop>
            <stop stop-color="#FDC650" stop-opacity="0.6" offset="100%"></stop>
        </linearGradient>
        <linearGradient x1="49.9997265%" y1="0%" x2="49.9997265%" y2="100%" id="linearGradient-6">
            <stop stop-color="#59B67E" stop-opacity="0" offset="0%"></stop>
            <stop stop-color="#59B67E" stop-opacity="0.6" offset="100%"></stop>
        </linearGradient>
        <linearGradient x1="49.9969917%" y1="0%" x2="49.9969917%" y2="100%" id="linearGradient-7">
            <stop stop-color="#FDC650" stop-opacity="0" offset="0%"></stop>
            <stop stop-color="#FDC650" stop-opacity="0.6" offset="100%"></stop>
        </linearGradient>
    </defs>
    <g id="Page-1" stroke="none" stroke-width="1" fill="none" fill-rule="evenodd">
        <g id="Create-route" transform="translate(-4.000000, -7.000000)">
            <rect id="base" x="0" y="0" width="162" height="162"></rect>
            <polygon id="Path" fill="url(#linearGradient-1)" fill-rule="nonzero" points="4 97 74 138 74 156 4 115"></polygon>
            <polygon id="Path" fill="url(#linearGradient-2)" fill-rule="nonzero" points="74 138 159 88 159 106 74 156"></polygon>
            <polygon id="Path" fill="url(#linearGradient-3)" fill-rule="nonzero" points="4 97 89 47 159 88 74 138"></polygon>
            <path d="M48.1248688,106.686635 L55.9009962,102.155428 C57.0939508,101.460284 57.4975064,99.9296783 56.8023628,98.7367237 C56.1072193,97.543769 54.5766133,97.1402135 53.3836587,97.835357 L45.6075312,102.366565 C44.4145766,103.061708 44.011021,104.592314 44.7061646,105.785269 C45.4013082,106.978223 46.9319142,107.381779 48.1248688,106.686635 Z M63.6771236,97.6242203 L71.4532511,93.0930127 C72.6462057,92.3978691 73.0497613,90.8672631 72.3546177,89.6743085 C71.6594741,88.4813539 70.1288682,88.0777983 68.9359135,88.7729419 L61.1597861,93.3041495 C59.9668315,93.999293 59.5632759,95.529899 60.2584195,96.7228536 C60.953563,97.9158082 62.484169,98.3193638 63.6771236,97.6242203 Z M79.2293785,88.5618051 L87.005506,84.0305975 C88.1984606,83.335454 88.6020162,81.804848 87.9068726,80.6118934 C87.211729,79.4189388 85.681123,79.0153832 84.4881684,79.7105267 L76.712041,84.2417343 C75.5190864,84.9368779 75.1155308,86.4674839 75.8106744,87.6604385 C76.5058179,88.8533931 78.0364239,89.2569487 79.2293785,88.5618051 Z M94.7816334,79.49939 L102.396869,75.0619354 C102.322497,75.1045416 102.275183,75.1270848 102.235056,75.1431392 C103.516976,74.630259 104.140406,73.1752858 103.627526,71.8933657 C103.114646,70.6114456 101.659672,69.9880157 100.377752,70.5008959 C100.21076,70.5677073 100.050355,70.644134 99.8977054,70.7313763 L92.2642959,75.1793192 C91.0713412,75.8744627 90.6677857,77.4050687 91.3629292,78.5980233 C92.0580728,79.7909779 93.5886788,80.1945335 94.7816334,79.49939 Z M108.307803,78.0158338 L112.041065,80.159956 C113.282582,80.8755873 114.638661,81.6592573 116.093928,82.501976 C117.288762,83.193883 118.818269,82.7861796 119.510176,81.591345 C120.202083,80.3965103 119.794379,78.8670039 118.599545,78.1750969 L110.788965,73.6748855 C109.590245,72.9897314 108.063064,73.4060586 107.37791,74.6047784 C106.692756,75.8034982 107.109083,77.3306797 108.307803,78.0158338 Z M123.87189,87.0187179 L129.257813,90.158766 C130.450091,90.8550683 131.981089,90.453 132.677391,89.2607213 C133.373693,88.0684427 132.971625,86.5374453 131.779346,85.841143 L126.387287,82.6975168 C125.19402,82.0029092 123.663596,82.4071522 122.968988,83.6004189 C122.274381,84.7936856 122.678624,86.3241102 123.87189,87.0187179 Z" id="Path" fill="#5B7B84" fill-rule="nonzero"></path>
            <ellipse id="Oval" fill="#59B67E" fill-rule="nonzero" cx="131.295" cy="86.952" rx="9.14127" ry="5.33241"></ellipse>
            <path d="M140.436,22.5063 L122.153,22.5063 L122.153,87.1046 L122.157,87.1046 C122.155,87.054 122.153,87.0032 122.153,86.9522 C122.153,84.0072 126.246,81.6198 131.295,81.6198 C136.325,81.6198 140.406,83.9898 140.436,86.9199 L140.436,22.5063 Z M140.436,86.9845 C140.435,87.0246 140.434,87.0647 140.432,87.1046 L140.436,87.1046 L140.436,86.9845 Z" id="Shape" fill="url(#linearGradient-4)"></path>
            <ellipse id="Oval" fill="#F0C279" fill-rule="nonzero" cx="74.1667" cy="71.4457" rx="9.14127" ry="5.33241"></ellipse>
            <path d="M83.3089,7 L65.0264,7 L65.0264,71.3696 C65.0963,68.4597 69.1618,66.1134 74.1667,66.1134 C79.2153,66.1134 83.308,68.5008 83.308,71.4458 C83.308,71.4968 83.3068,71.5476 83.3043,71.5983 L83.3089,71.5983 L83.3089,7 Z" id="Shape" fill="url(#linearGradient-5)"></path>
            <ellipse id="Oval" fill="#59B67E" fill-rule="nonzero" cx="46.8258" cy="104.0907" rx="9.14127" ry="5.33241"></ellipse>
            <path d="M55.9671,39.645 L37.6846,39.645 L37.6846,104.2433 L37.6885,104.2433 C37.686,104.1926 37.6848,104.1417 37.6848,104.0907 C37.6848,101.1457 41.7775,98.7583 46.8261,98.7583 C51.8525,98.7583 55.9314,101.1248 55.9671,104.0519 L55.9671,39.645 Z M55.9671,104.1295 C55.9666,104.1675 55.9655,104.2055 55.9637,104.2433 L55.9671,104.2433 L55.9671,104.1295 Z" id="Shape" fill="url(#linearGradient-6)"></path>
            <ellipse id="Oval" fill="#F0C279" fill-rule="nonzero" cx="103.138" cy="103.6825" rx="9.14127" ry="5.33241"></ellipse>
            <path d="M112.28,39.2368 L93.9971,39.2368 L93.9971,103.8351 L94.0009,103.8351 C93.9985,103.7844 93.9973,103.7335 93.9973,103.6824 C93.9973,100.7374 98.0899,98.35 103.139,98.35 C108.167,98.35 112.248,100.7187 112.28,103.6478 L112.28,39.2368 Z M112.28,103.7171 C112.279,103.7565 112.278,103.7959 112.276,103.8351 L112.28,103.8351 L112.28,103.7171 Z" id="Shape" fill="url(#linearGradient-7)"></path>
        </g>
    </g>
</svg>