<svg width="19" height="32" viewBox="0 0 19 32" fill="none" xmlns="http://www.w3.org/2000/svg">
<path d="M15.7403 20.7247L1.10667 31.3642C0.619618 31.7183 -0.0667974 31.3332 0.00523889 30.7462L2.16959 13.1103C2.21906 12.7072 2.36109 12.3247 2.58028 11.9887C2.75851 11.7155 2.98775 11.4731 3.25973 11.2753L17.8933 0.635782C18.3804 0.281663 19.0668 0.666805 18.9948 1.25379L16.8304 18.8897C16.7808 19.2942 16.6379 19.6779 16.4175 20.0147C16.2395 20.2865 16.0111 20.5278 15.7403 20.7247Z" fill="#F2C94C"/>
<path d="M18.994 1.25379L16.8297 18.8897C16.7797 19.2966 16.6354 19.6826 16.4127 20.0209L2.57812 11.9909C2.75656 11.7168 2.9863 11.4736 3.25899 11.2753L17.8926 0.635782C18.3796 0.281663 19.0661 0.666805 18.994 1.25379Z" fill="#2D9CDB"/>
</svg>
