<?xml version="1.0" encoding="UTF-8"?>
<svg width="572px" height="405px" viewBox="0 0 572 405" version="1.1" xmlns="http://www.w3.org/2000/svg" xmlns:xlink="http://www.w3.org/1999/xlink">
    <!-- Generator: Sketch 64 (93537) - https://sketch.com -->
    <title>Main page</title>
    <desc>Created with Sketch.</desc>
    <defs>
        <linearGradient x1="91.7980583%" y1="43.3464897%" x2="9.23094888%" y2="39.7455211%" id="linearGradient-1">
            <stop stop-color="#34C8C3" offset="0%"></stop>
            <stop stop-color="#99D8DC" offset="100%"></stop>
        </linearGradient>
        <linearGradient x1="81.3467934%" y1="38.5465598%" x2="19.3125794%" y2="35.8416997%" id="linearGradient-2">
            <stop stop-color="#34C8C3" offset="0%"></stop>
            <stop stop-color="#99D8DC" offset="100%"></stop>
        </linearGradient>
        <linearGradient x1="91.7982323%" y1="47.9520505%" x2="9.83253876%" y2="44.3772969%" id="linearGradient-3">
            <stop stop-color="#34C8C3" offset="0%"></stop>
            <stop stop-color="#99D8DC" offset="100%"></stop>
        </linearGradient>
        <linearGradient x1="91.799379%" y1="42.1220298%" x2="9.19028855%" y2="38.5199836%" id="linearGradient-4">
            <stop stop-color="#34C8C3" offset="0%"></stop>
            <stop stop-color="#99D8DC" offset="100%"></stop>
        </linearGradient>
        <linearGradient x1="65.8590312%" y1="38.5462904%" x2="34.4513558%" y2="37.1761482%" id="linearGradient-5">
            <stop stop-color="#34C8C3" offset="0%"></stop>
            <stop stop-color="#99D8DC" offset="100%"></stop>
        </linearGradient>
        <linearGradient x1="81.1461485%" y1="38.5471021%" x2="19.5042402%" y2="35.8566447%" id="linearGradient-6">
            <stop stop-color="#34C8C3" offset="0%"></stop>
            <stop stop-color="#99D8DC" offset="100%"></stop>
        </linearGradient>
        <linearGradient x1="91.7979207%" y1="44.2044005%" x2="9.2707471%" y2="40.6053486%" id="linearGradient-7">
            <stop stop-color="#34C8C3" offset="0%"></stop>
            <stop stop-color="#99D8DC" offset="100%"></stop>
        </linearGradient>
        <linearGradient x1="91.7984353%" y1="44.7984881%" x2="9.30653053%" y2="41.2014222%" id="linearGradient-8">
            <stop stop-color="#34C8C3" offset="0%"></stop>
            <stop stop-color="#99D8DC" offset="100%"></stop>
        </linearGradient>
        <linearGradient x1="91.7991081%" y1="42.7794808%" x2="9.21103828%" y2="39.1769443%" id="linearGradient-9">
            <stop stop-color="#34C8C3" offset="0%"></stop>
            <stop stop-color="#99D8DC" offset="100%"></stop>
        </linearGradient>
        <linearGradient x1="91.8013402%" y1="40.4779329%" x2="9.14903867%" y2="36.8719666%" id="linearGradient-10">
            <stop stop-color="#34C8C3" offset="0%"></stop>
            <stop stop-color="#99D8DC" offset="100%"></stop>
        </linearGradient>
        <linearGradient x1="67.2733773%" y1="38.5469243%" x2="33.0660111%" y2="37.0540117%" id="linearGradient-11">
            <stop stop-color="#34C8C3" offset="0%"></stop>
            <stop stop-color="#99D8DC" offset="100%"></stop>
        </linearGradient>
        <linearGradient x1="90.0708343%" y1="38.5452587%" x2="10.7999366%" y2="35.0896807%" id="linearGradient-12">
            <stop stop-color="#34C8C3" offset="0%"></stop>
            <stop stop-color="#99D8DC" offset="100%"></stop>
        </linearGradient>
        <linearGradient x1="69.1826557%" y1="38.5435681%" x2="31.1987325%" y2="36.8911519%" id="linearGradient-13">
            <stop stop-color="#34C8C3" offset="0%"></stop>
            <stop stop-color="#99D8DC" offset="100%"></stop>
        </linearGradient>
        <linearGradient x1="73.5150563%" y1="38.5506287%" x2="26.9626903%" y2="36.5155526%" id="linearGradient-14">
            <stop stop-color="#34C8C3" offset="0%"></stop>
            <stop stop-color="#99D8DC" offset="100%"></stop>
        </linearGradient>
        <linearGradient x1="91.7982012%" y1="42.6691186%" x2="9.20841027%" y2="39.0668136%" id="linearGradient-15">
            <stop stop-color="#34C8C3" offset="0%"></stop>
            <stop stop-color="#99D8DC" offset="100%"></stop>
        </linearGradient>
        <linearGradient x1="89.070389%" y1="39.6919111%" x2="11.8301674%" y2="62.3609363%" id="linearGradient-16">
            <stop stop-color="#BBE3EE" offset="0%"></stop>
            <stop stop-color="#EAFAFF" offset="100%"></stop>
        </linearGradient>
        <linearGradient x1="50%" y1="0%" x2="50%" y2="100%" id="linearGradient-17">
            <stop stop-color="#FDC650" stop-opacity="0" offset="0%"></stop>
            <stop stop-color="#FDC650" stop-opacity="0.6" offset="100%"></stop>
        </linearGradient>
        <linearGradient x1="50%" y1="0%" x2="50%" y2="100%" id="linearGradient-18">
            <stop stop-color="#FDC650" stop-opacity="0" offset="0%"></stop>
            <stop stop-color="#FDC650" stop-opacity="0.6" offset="100%"></stop>
        </linearGradient>
        <linearGradient x1="49.9986351%" y1="0%" x2="49.9986351%" y2="100%" id="linearGradient-19">
            <stop stop-color="#FDC650" stop-opacity="0" offset="0%"></stop>
            <stop stop-color="#FDC650" stop-opacity="0.6" offset="100%"></stop>
        </linearGradient>
        <linearGradient x1="49.9987592%" y1="0%" x2="49.9987592%" y2="100%" id="linearGradient-20">
            <stop stop-color="#FDC650" stop-opacity="0" offset="0%"></stop>
            <stop stop-color="#FDC650" stop-opacity="0.6" offset="100%"></stop>
        </linearGradient>
        <linearGradient x1="73.7792886%" y1="38.5965975%" x2="23.8073833%" y2="59.6434711%" id="linearGradient-21">
            <stop stop-color="#1D5F8A" offset="0%"></stop>
            <stop stop-color="#347DAC" offset="100%"></stop>
        </linearGradient>
        <linearGradient x1="79.0855652%" y1="36.5439214%" x2="25.4905014%" y2="59.2266164%" id="linearGradient-22">
            <stop stop-color="#1D5F8A" offset="0%"></stop>
            <stop stop-color="#347DAC" offset="100%"></stop>
        </linearGradient>
        <linearGradient x1="4.78709923%" y1="68.091978%" x2="102.640667%" y2="53.2049425%" id="linearGradient-23">
            <stop stop-color="#17547C" offset="0%"></stop>
            <stop stop-color="#2871A2" offset="100%"></stop>
        </linearGradient>
        <linearGradient x1="6.4205896%" y1="46.9322813%" x2="103.882408%" y2="27.5981417%" id="linearGradient-24">
            <stop stop-color="#CBF1FB" offset="0%"></stop>
            <stop stop-color="#F8FEFF" offset="100%"></stop>
        </linearGradient>
        <linearGradient x1="58.2518938%" y1="11.0486461%" x2="30.0959926%" y2="68.4517981%" id="linearGradient-25">
            <stop stop-color="#CBF1FB" offset="0%"></stop>
            <stop stop-color="#F8FEFF" offset="100%"></stop>
        </linearGradient>
        <linearGradient x1="73.7799709%" y1="38.3474683%" x2="23.4397757%" y2="59.5498965%" id="linearGradient-26">
            <stop stop-color="#1D5F8A" offset="0%"></stop>
            <stop stop-color="#347DAC" offset="100%"></stop>
        </linearGradient>
    </defs>
    <g id="Page-1" stroke="none" stroke-width="1" fill="none" fill-rule="evenodd">
        <g id="Main-page">
            <path d="M0.464844,308.588 L0.464844,282.397 L62.5855,282.397 L56.8771,329.743 L43.1098,326.385 C32.7004,324.37 33.0362,322.691 33.0362,321.348 C33.0362,320.005 31.3573,315.64 20.2763,315.304 C11.4115,315.035 0.464844,311.275 0.464844,308.588 Z" id="Path" fill="url(#linearGradient-1)" fill-rule="nonzero"></path>
            <polygon id="Path" fill="url(#linearGradient-2)" fill-rule="nonzero" points="166.008 180.318 166.008 202.48 189.177 212.889 194.214 180.318"></polygon>
            <path d="M315.433,333.772 C317.313,335.115 322.037,335.675 324.163,335.787 L356.399,335.787 L362.443,306.238 L302.001,269.973 L43.1094,332.765 L43.1094,361.978 C43.1094,368.023 48.8178,371.045 54.5261,375.074 C60.2345,379.104 58.8914,387.498 59.2272,390.184 C59.563,392.871 61.9135,401.937 75.0092,403.952 C88.1049,405.966 92.8059,404.959 96.8353,401.937 C100.865,398.915 105.902,398.915 109.259,398.915 C112.617,398.915 123.027,397.908 128.399,394.55 C133.772,391.192 150.561,384.812 156.941,384.812 C163.321,384.812 170.373,383.469 172.052,378.768 C173.731,374.067 178.432,370.037 181.118,368.694 C183.804,367.351 190.52,359.628 191.527,355.263 C192.535,350.897 193.206,344.517 210.331,333.772 C227.457,323.027 248.275,327.728 250.626,324.37 C252.958,321.039 258.264,322.004 261.955,322.675 L262.043,322.691 C265.736,323.363 268.087,323.363 272.788,322.02 C277.489,320.677 281.518,324.034 287.563,327.728 C293.607,331.422 302.001,331.422 306.702,331.422 C311.403,331.422 313.082,332.093 315.433,333.772 Z" id="Path" fill="url(#linearGradient-3)" fill-rule="nonzero"></path>
            <path d="M532.015,159.163 L532.015,130.622 L476.946,130.622 L509.518,176.289 L522.613,167.222 C527.986,164.267 531.232,160.619 532.015,159.163 Z" id="Path" fill="url(#linearGradient-4)" fill-rule="nonzero"></path>
            <path d="M524.964,199.794 L524.964,171.587 L470.566,190.391 L470.566,259.899 L495.079,245.796 C496.086,239.752 505.152,231.022 510.525,224.642 C515.898,218.262 517.241,213.225 517.241,209.867 C518.584,207.449 522.949,202.144 524.964,199.794 Z" id="Path" fill="url(#linearGradient-5)" fill-rule="nonzero"></path>
            <path d="M571.974,269.973 L571.974,241.767 L550.484,244.453 L538.06,266.28 L551.491,281.054 C561.699,278.637 569.4,272.66 571.974,269.973 Z" id="Path" fill="url(#linearGradient-6)" fill-rule="nonzero"></path>
            <path d="M551.156,292.471 L551.156,263.593 L458.143,294.486 L458.143,323.699 C458.143,326.385 464.523,324.371 475.604,320.006 C492.9,313.192 496.758,315.305 504.817,316.648 C510.934,317.667 514.555,321.796 515.562,324.035 C515.562,324.371 515.226,330.079 519.256,329.743 C531.008,328.764 538.62,322.804 540.075,320.006 L540.075,303.552 C547.596,298.448 550.596,294.038 551.156,292.471 Z" id="Path" fill="url(#linearGradient-7)" fill-rule="nonzero"></path>
            <path d="M443.368,301.537 C446.709,295.523 455.008,295.493 458.143,295.829 L483.662,270.309 L435.309,257.885 L399.044,286.091 L399.044,314.297 C399.044,316.312 436.652,313.625 443.368,301.537 Z" id="Path" fill="url(#linearGradient-8)" fill-rule="nonzero"></path>
            <path d="M399.043,307.917 C392.865,308.991 384.604,314.409 381.247,316.983 L356.062,291.463 L422.884,263.929 L399.043,307.917 Z" id="Path" fill="url(#linearGradient-9)" fill-rule="nonzero"></path>
            <polygon id="Path" fill="url(#linearGradient-10)" fill-rule="nonzero" points="381.918 340.824 381.918 320.005 359.085 328.064 359.085 340.824"></polygon>
            <path d="M336.587,373.396 C336.587,376.35 339.497,379.999 340.952,381.454 L357.406,341.496 L324.163,329.743 L324.163,355.935 C324.163,360.3 333.901,365.672 334.908,367.016 C335.916,368.359 336.587,369.702 336.587,373.396 Z" id="Path" fill="url(#linearGradient-11)" fill-rule="nonzero"></path>
            <path d="M390.65,372.052 L390.65,345.189 L357.743,340.152 L340.954,362.986 L340.954,388.17 C340.954,389.513 340.457,392.5 353.713,389.849 C367.145,387.163 363.787,377.425 369.496,374.403 C372.863,372.62 383.395,373.161 387.837,373.389 L387.964,373.395 C389.979,373.395 390.65,372.724 390.65,372.052 Z" id="Path" fill="url(#linearGradient-12)" fill-rule="nonzero"></path>
            <polygon id="Path" fill="url(#linearGradient-13)" fill-rule="nonzero" points="11.5449 277.361 11.5449 269.302 18.5965 269.302 16.9175 279.711"></polygon>
            <polygon id="Path" fill="url(#linearGradient-14)" fill-rule="nonzero" points="187.498 162.521 187.498 153.119 196.564 155.805 194.214 165.207"></polygon>
            <polygon id="Path" fill="url(#linearGradient-15)" fill-rule="nonzero" points="517.576 163.193 517.576 151.776 500.787 156.141 508.174 165.207"></polygon>
            <path d="M491.386,233.372 C489.505,239.282 493.512,244.565 495.751,246.468 C500.116,249.826 509.518,251.505 516.234,251.505 C522.95,251.505 521.271,254.863 530.001,255.534 C538.732,256.206 540.746,251.841 541.754,247.476 C542.761,243.11 545.783,242.439 548.805,239.417 C548.805,234.044 557.536,231.694 561.565,232.029 C564.789,232.298 565.371,235.499 565.259,237.066 C567.945,238.409 570.296,238.335 571.639,240.424 C574.661,245.125 557.871,251.505 551.491,253.52 C545.112,255.534 547.839,259.516 549.812,261.243 C552.499,263.593 551.156,267.287 545.783,270.645 C540.41,274.003 538.732,278.368 539.067,286.091 C539.403,293.814 535.374,296.165 531.008,298.515 C526.643,300.866 520.599,303.888 517.241,302.88 C513.883,301.873 516.905,301.201 514.555,294.822 C512.204,288.442 492.729,288.442 483.662,289.449 C474.596,290.456 466.201,298.515 460.157,297.172 C454.113,295.829 463.179,280.718 466.201,276.353 L466.22,276.327 C469.233,271.975 471.549,268.629 459.15,267.959 C446.726,267.287 451.427,269.973 436.652,279.711 C421.878,289.449 408.446,286.091 402.066,286.427 C395.686,286.763 400.051,284.412 406.431,280.718 C412.811,277.025 409.453,277.025 404.752,278.368 C400.051,279.711 385.277,286.427 376.546,292.807 C367.816,299.187 375.285,306.044 380.24,314.633 C385.277,323.363 378.225,326.386 372.853,331.087 C367.539,335.736 374.049,338.086 385.886,342.359 L386.284,342.503 C398.372,346.869 383.262,345.525 374.196,345.525 C365.13,345.525 366.473,353.92 363.451,357.95 C360.428,361.979 350.013,362.942 344.646,363.658 C339.61,364.329 340.617,361.643 341.624,359.964 C342.632,358.285 341.624,354.927 339.945,352.913 C338.267,350.898 336.923,347.54 337.259,345.525 C337.595,343.511 339.878,342.935 327.521,334.109 C315.769,325.714 337.259,323.028 348.34,320.006 C359.421,316.983 353.377,314.633 351.362,311.947 C349.348,309.26 341.96,308.589 337.931,308.589 C333.901,308.589 318.791,308.589 315.433,305.903 C312.075,303.216 305.359,304.559 295.957,303.216 C286.555,301.873 280.511,293.143 273.795,294.486 C267.08,295.829 260.028,294.486 255.999,294.486 C251.969,294.486 247.94,298.851 244.246,299.187 C240.552,299.523 231.15,297.844 217.383,303.216 C203.616,308.589 194.55,318.327 193.206,322.692 C191.863,327.057 188.505,334.444 184.476,338.138 C180.447,341.832 177.089,343.511 172.388,350.898 C167.687,358.285 159.292,357.95 150.561,357.95 C141.831,357.95 125.377,368.695 118.662,370.374 C111.946,372.053 106.909,370.038 98.1786,374.403 C89.4482,378.768 83.404,376.754 75.6809,376.082 C67.9578,375.41 64.2641,372.388 60.9062,367.016 C57.5484,361.643 57.2126,353.249 55.8694,349.219 C54.5263,345.19 45.46,343.175 43.4453,334.78 C41.4306,326.386 45.7958,314.969 49.1537,307.246 C52.5116,299.523 37.7369,295.829 34.3791,295.493 C31.0212,295.157 32.0285,292.135 31.357,291.128 C30.6854,290.121 27.3275,287.434 17.2539,287.098 C7.18028,286.763 1.47172,283.741 0.464358,282.397 C-0.543003,281.054 4.15802,277.361 10.538,277.361 C16.9179,277.361 14.9034,276.689 11.8813,270.309 C9.49545,265.272 20.9474,262.586 25.6484,257.213 C30.3494,251.841 37.7368,252.177 39.7515,251.841 C41.7662,251.505 41.4304,249.154 47.8104,246.468 C54.1903,243.782 75.6807,239.752 80.3818,235.723 C85.0828,231.694 89.448,234.38 94.4848,234.044 C99.5216,233.708 98.85,231.694 105.23,230.686 C111.61,229.679 113.625,228.336 114.296,224.978 C114.968,221.62 120.005,219.269 126.72,219.605 C133.436,219.941 133.436,217.926 134.779,215.24 C136.122,212.554 137.13,211.882 145.86,212.889 C154.591,213.897 153.248,212.554 155.262,209.532 C157.277,206.509 162.314,207.853 165.336,203.152 C168.358,198.451 174.066,199.794 176.081,200.465 C178.096,201.137 184.812,201.473 184.812,199.122 C184.812,196.772 183.133,197.107 181.454,196.436 C179.775,195.764 175.41,195.764 167.686,184.683 C159.963,173.602 180.446,166.551 185.819,163.529 C191.192,160.507 190.856,157.82 188.506,154.798 C186.155,151.776 187.162,151.776 195.557,148.083 C203.952,144.389 198.915,145.732 207.31,137.337 C215.704,128.943 228.464,132.636 241.56,132.972 C252.037,133.241 255.327,134.875 255.663,135.658 L255.663,142.038 C259.692,142.71 269.43,152.448 283.533,142.038 C297.636,131.629 317.112,142.038 321.813,145.396 C326.514,148.754 333.23,147.075 336.252,145.396 C339.274,143.717 339.274,138.345 354.049,136.666 C365.868,135.323 371.51,125.361 372.853,120.548 C376.882,113.832 398.037,121.555 403.409,120.548 C408.782,119.541 407.103,111.482 412.811,109.803 C416.744,108.646 436.652,103.759 449.748,102.751 C461.967,101.811 458.814,97.3786 463.18,94.3565 C467.545,91.3344 471.238,95.0281 473.253,95.6996 C475.268,96.3712 478.626,97.3786 479.969,100.065 C481.312,102.751 486.013,108.795 489.707,109.803 C492.662,110.609 497.206,114.168 499.109,115.847 L508.175,115.847 C511.869,115.847 513.548,120.212 518.584,120.548 C523.621,120.884 522.95,121.555 530.001,126.928 C537.494,132.636 521.942,140.359 518.584,142.71 C515.227,145.06 516.005,148.56 516.906,149.761 C517.913,151.105 517.913,151.776 516.234,155.806 C514.555,159.835 516.906,163.864 521.942,166.887 C527.112,169.989 524.964,173.938 520.935,177.968 C516.906,181.997 516.906,185.019 516.906,188.377 C516.906,191.735 499.445,211.546 495.751,217.255 C492.057,222.963 493.736,225.985 491.386,233.372 Z" id="Path" fill="url(#linearGradient-16)" fill-rule="nonzero"></path>
            <path d="M451.519404,144.224349 C452.949582,145.060863 453.430842,146.89838 452.594328,148.328559 C451.757814,149.758737 449.920296,150.239997 448.490118,149.403483 L443.195357,146.306567 L444.71,143.717 L443.323115,146.377178 C442.560909,145.979802 441.27018,145.865105 440.518478,146.305492 C439.088893,147.14302 437.251035,146.663063 436.413508,145.233478 C435.57598,143.803893 436.055937,141.966035 437.485522,141.128508 C440.280061,139.491316 443.672287,139.792756 446.096885,141.056822 L446.224643,141.127433 L451.519404,144.224349 Z M472.23594,156.341491 C473.666118,157.178005 474.147378,159.015523 473.310864,160.445701 C472.47435,161.875879 470.636832,162.357139 469.206654,161.520625 L458.848386,155.462054 C457.418208,154.62554 456.936948,152.788023 457.773462,151.357844 C458.609976,149.927666 460.447493,149.446406 461.877672,150.28292 L472.23594,156.341491 Z M480.466313,176.699468 C479.05378,177.565445 477.206683,177.122375 476.340705,175.709842 C475.474728,174.297309 475.917798,172.450211 477.330331,171.584234 L478.463803,170.880373 C478.54897,170.826653 478.632027,170.774033 478.713132,170.722414 C479.623378,170.140635 480.179315,169.615106 480.440895,169.190214 C480.556679,169.002141 480.574329,168.923098 480.565225,168.853759 C480.528478,168.573881 480.151289,168.067812 479.516245,167.589311 L479.352159,167.470406 C477.992864,166.523051 477.658921,164.653141 478.606277,163.293846 C479.553633,161.934551 481.423542,161.600608 482.782838,162.547963 C484.769204,163.932354 486.216509,165.805615 486.514168,168.072684 C486.898274,170.998167 485.260425,173.658575 481.939556,175.781086 L481.095562,176.31132 C480.895527,176.435551 480.686335,176.56458 480.466313,176.699468 Z M459.613756,188.785474 C458.172086,189.602023 456.341437,189.095263 455.524887,187.653593 C454.708338,186.211923 455.215098,184.381274 456.656768,183.564724 L460.042139,181.643116 C462.529238,180.228162 464.889867,178.877652 467.059014,177.627859 C468.494626,176.800706 470.32896,177.293959 471.156114,178.729571 C471.983268,180.165184 471.490014,181.999518 470.054402,182.826672 L467.814414,184.11411 C465.260202,185.57877 462.497071,187.152389 459.613756,188.785474 Z M451.985932,201.77524 C451.127498,203.19237 449.282789,203.645283 447.865659,202.786849 L445.947701,201.621234 C445.795424,201.528353 445.6451,201.436573 445.496778,201.345924 C442.248538,199.361112 440.738302,196.73999 441.631879,193.91818 C442.25345,191.955335 443.900251,190.528252 445.842287,189.66467 L447.061238,192.405867 L445.598455,189.786656 L446.213506,189.442974 C447.659688,188.634443 449.487494,189.151362 450.296026,190.597544 C451.104557,192.043727 450.587638,193.871533 449.141456,194.680064 L448.40488,195.091616 L448.280189,195.147063 C447.753179,195.381414 447.352109,195.728972 447.35193,195.729537 C447.419443,195.516339 447.390419,195.263738 447.33685,195.170766 C447.461418,195.386962 447.867062,195.762809 448.625457,196.22622 L450.974324,197.654968 C452.391454,198.513402 452.844366,200.358111 451.985932,201.77524 Z M458.456378,216.926464 C457.027769,217.765655 455.189353,217.287838 454.350162,215.859229 C453.510971,214.43062 453.988788,212.592204 455.417397,211.753013 L458.240071,210.081013 C458.539629,209.900517 458.750901,209.770828 458.869625,209.69453 C459.369892,209.372902 459.608194,209.138276 459.656485,209.048423 C459.567185,209.214583 459.536274,209.505353 459.609342,209.756571 L459.637534,209.858391 C459.638138,209.866683 459.634428,209.86625 459.625318,209.858752 L459.60747,209.842416 C459.519994,209.758687 459.400994,209.671064 459.275773,209.596868 L458.965439,209.427559 L458.186317,208.966451 C456.760914,208.121825 456.290101,206.281603 457.134727,204.856201 C457.979353,203.430798 459.819575,202.959985 461.244978,203.804611 L462.0181,204.262169 L460.49177,206.844864 L461.834124,204.161939 C463.470116,204.980479 464.854144,206.30523 465.370601,208.080895 C466.086604,210.542634 464.908582,212.849529 462.357108,214.581135 L462.1139,214.741775 C461.658671,215.034327 460.454113,215.752958 458.456378,216.926464 Z M433.588861,227.901408 C432.759039,226.467336 433.248879,224.632088 434.68295,223.802265 L445.064448,217.786925 C446.497398,216.955166 448.333306,217.442528 449.165064,218.875477 C449.996823,220.308426 449.509461,222.144335 448.076512,222.976093 L437.688004,228.995496 C436.253933,229.825319 434.418684,229.335479 433.588861,227.901408 Z M412.804651,239.905701 C411.976496,238.470666 412.46847,236.635988 413.903505,235.807833 L424.292379,229.809456 C425.727035,228.980643 427.561938,229.471776 428.39075,230.906432 C429.219563,232.341087 428.72843,234.17599 427.293775,235.004803 L416.90251,241.004554 C415.467484,241.832709 413.632806,241.340736 412.804651,239.905701 Z M392.01194,251.894036 C391.184651,250.458502 391.67773,248.624121 393.113265,247.796832 L403.509592,241.803703 C404.944905,240.97603 406.779417,241.46862 407.60709,242.903933 C408.434763,244.339246 407.942173,246.173759 406.50686,247.001432 L396.109145,252.99536 C394.673611,253.82265 392.83923,253.32957 392.01194,251.894036 Z M371.215026,263.871488 C370.388358,262.435597 370.88223,260.601429 372.318122,259.774761 L382.717351,253.786328 C384.153073,252.959364 385.987342,253.45286 386.814306,254.888581 C387.64127,256.324303 387.147774,258.158572 385.712053,258.985536 L375.311754,264.974584 C373.875862,265.801253 372.041695,265.30738 371.215026,263.871488 Z M350.411872,275.841055 C349.585818,274.404809 350.080476,272.570853 351.516721,271.744799 L361.917715,265.76107 C363.353774,264.934691 365.187842,265.428935 366.01422,266.864994 C366.840598,268.301053 366.346355,270.13512 364.910296,270.961499 L354.508128,276.945903 C353.071883,277.771957 351.237927,277.2773 350.411872,275.841055 Z M330.163752,270.128851 C328.733353,269.292714 328.251609,267.455323 329.087745,266.024925 C329.923882,264.594526 331.761273,264.112781 333.191672,264.948918 L339.285147,268.519998 C341.021993,269.54143 342.455164,270.388523 343.556566,271.045038 C344.979767,271.893369 345.445791,273.73481 344.59746,275.158011 C343.749129,276.581211 341.907689,277.047236 340.484488,276.198905 L334.268406,272.531956 C333.019035,271.799132 331.648231,270.9966 330.163752,270.128851 Z M308.339533,253.957267 C309.171282,252.524312 311.007187,252.036938 312.440142,252.868687 L322.81838,258.900283 C324.250382,259.733672 324.735654,261.570133 323.902265,263.002135 C323.068876,264.434137 321.232414,264.919409 319.800412,264.08602 L309.428113,258.057876 C307.995158,257.226127 307.507784,255.390222 308.339533,253.957267 Z M313.746296,239.445402 C315.177457,238.61057 317.014408,239.09399 317.84924,240.525151 C318.684072,241.956312 318.200652,243.793262 316.769491,244.628094 L306.857958,250.409733 L306.700884,250.504782 L306.559393,250.59655 C305.185056,251.521949 303.320751,251.158013 302.395352,249.783676 C301.469953,248.409339 301.833889,246.545034 303.208226,245.619635 C303.403395,245.488219 303.608894,245.35936 303.829838,245.229921 L313.746296,239.445402 Z M309.546349,231.09907 C308.099858,230.291092 307.582241,228.463483 308.390219,227.016992 C309.198198,225.5705 311.025806,225.052883 312.472298,225.860862 L317.338895,228.569274 C319.263184,229.635155 320.838044,230.499605 321.938523,231.092142 C322.464914,231.378452 322.937038,231.684269 323.355899,232.012387 C324.660205,233.034126 324.88927,234.919759 323.86753,236.224065 C322.885088,237.478205 321.103929,237.738225 319.808847,236.848049 L319.655852,236.735696 C319.51015,236.621559 319.316184,236.495919 319.082889,236.368996 L317.071844,235.274163 C315.126239,234.206868 312.538136,232.770216 309.546349,231.09907 Z M286.789316,231.594701 C285.95937,230.160701 286.449052,228.32541 287.883051,227.495464 L296.198251,222.678959 C297.226759,222.08963 298.307658,221.690509 299.417555,221.472497 C301.043342,221.153151 302.620184,222.21223 302.93953,223.838017 C303.247471,225.405741 302.273687,226.927953 300.745996,227.321021 L300.57401,227.359993 C300.099377,227.453223 299.635982,227.624331 299.200717,227.873638 L290.888553,232.688436 C289.454553,233.518383 287.619262,233.028701 286.789316,231.594701 Z M266.012691,243.614751 C265.183059,242.180569 265.673143,240.345386 267.107324,239.515753 L277.493059,233.507517 C278.927188,232.677794 280.762402,233.167762 281.592125,234.601891 C282.421848,236.03602 281.93188,237.871235 280.497751,238.700957 L270.111688,244.709384 C268.677507,245.539016 266.842323,245.048932 266.012691,243.614751 Z M245.236116,255.632196 C244.406574,254.197963 244.896773,252.36281 246.331007,251.533268 L256.718708,245.524989 C258.152921,244.69541 259.988086,245.185562 260.817665,246.619775 C261.647244,248.053987 261.157091,249.889152 259.722879,250.718731 L249.335044,256.727088 C247.90081,257.55663 246.065658,257.06643 245.236116,255.632196 Z M224.460567,267.647844 C223.631077,266.213581 224.121343,264.378446 225.555606,263.548955 L235.944063,257.540798 C237.378313,256.711284 239.213456,257.20152 240.04297,258.63577 C240.872484,260.07002 240.382248,261.905163 238.947998,262.734676 L228.559456,268.742883 C227.125193,269.572373 225.290058,269.082108 224.460567,267.647844 Z M203.685941,279.662129 C202.856491,278.227842 203.346807,276.392721 204.781094,275.56327 L215.168544,269.556096 C216.60282,268.726626 218.437948,269.216918 219.267417,270.651193 C220.096887,272.085469 219.606595,273.920597 218.17232,274.750067 L207.7848,280.757281 C206.350513,281.586732 204.515392,281.096415 203.685941,279.662129 Z M185.082781,292.163139 C183.426046,292.143222 182.099144,290.784027 182.119061,289.127292 C182.138267,287.529727 183.402796,286.238855 184.978586,286.166546 L185.154907,286.163572 C185.981374,286.173508 186.726929,285.993742 187.003427,285.843832 L194.394029,281.570031 C195.828328,280.740601 197.663442,281.230944 198.492872,282.665242 C199.322302,284.09954 198.83196,285.934655 197.397661,286.764085 L189.942689,291.074062 C188.685175,291.760549 186.923703,292.18527 185.082781,292.163139 Z M163.058442,280.936141 C161.479137,280.435181 160.604966,278.748793 161.105926,277.169487 C161.606886,275.590182 163.293275,274.716011 164.87258,275.216971 C165.326948,275.361098 165.748989,275.538895 166.184942,275.782127 L170.233104,278.1698 C172.139968,279.29724 174.117612,280.470147 175.874862,281.51705 C177.298257,282.365055 177.764702,284.206388 176.916697,285.629783 C176.068692,287.053178 174.227359,287.519624 172.803964,286.671619 L167.570096,283.565434 C166.019143,282.647867 164.509749,281.757163 163.207071,280.990472 L163.117732,280.955864 L163.058442,280.936141 Z M139.929803,289.347666 C139.095577,287.916152 139.579775,286.079406 141.011289,285.24518 L151.377468,279.202293 C152.808745,278.367658 154.645628,278.851332 155.480262,280.282609 C156.314896,281.713885 155.831223,283.550768 154.399946,284.385402 L144.032289,290.429152 C142.600774,291.263378 140.764029,290.77918 139.929803,289.347666 Z M119.191137,301.424143 C118.357671,299.992187 118.842842,298.155698 120.274799,297.322231 L130.644609,291.284625 C132.076341,290.450773 133.91296,290.935451 134.746812,292.367184 C135.580663,293.798916 135.095985,295.635535 133.664253,296.469386 L123.293049,302.507804 C121.861092,303.341271 120.024604,302.856099 119.191137,301.424143 Z M98.9157559,297.600847 C97.4846906,296.765852 97.0014809,294.928846 97.8364768,293.497781 C98.6714727,292.066715 100.508478,291.583506 101.939544,292.418502 L104.478931,293.911761 C107.40019,295.641225 110.505114,297.515649 112.306463,298.641768 C113.711376,299.520053 114.138293,301.370951 113.260007,302.775864 C112.381722,304.180777 110.530824,304.607694 109.125911,303.729408 L108.287027,303.208992 C105.855711,301.710169 101.965838,299.380505 98.9157559,297.600847 Z M111.57281,279.012354 C112.398052,280.449066 111.902357,282.282742 110.465644,283.107984 L100.063999,289.085405 C98.6280784,289.912023 96.7939284,289.418085 95.9673108,287.982164 C95.1406932,286.546243 95.6346313,284.712093 97.0705523,283.885475 L107.47718,277.905189 C108.913892,277.079947 110.747568,277.575642 111.57281,279.012354 Z M132.385121,267.058732 C133.210345,268.495454 132.714627,270.329124 131.277905,271.154348 L120.873112,277.130401 C119.436366,277.955583 117.60271,277.459813 116.777528,276.023067 C115.952345,274.58632 116.448116,272.752665 117.884862,271.927482 L128.289505,265.951515 C129.726227,265.126291 131.559897,265.622009 132.385121,267.058732 Z M153.200143,255.100759 C154.025572,256.537364 153.530117,258.371104 152.093512,259.196533 L141.686247,265.175627 C140.249573,266.000937 138.415874,265.505328 137.590564,264.068655 C136.765255,262.631981 137.260863,260.798282 138.697537,259.972973 L149.104369,253.994128 C150.540973,253.168699 152.374714,253.664155 153.200143,255.100759 Z M174.003557,243.143748 C174.829343,244.580147 174.334343,246.414011 172.897944,247.239797 L162.492823,253.220689 C161.056308,254.046274 159.222514,253.551017 158.396929,252.114502 C157.571344,250.677986 158.066601,248.844192 159.503116,248.018607 L169.907508,242.038134 C171.343907,241.212348 173.177771,241.707348 174.003557,243.143748 Z M194.803761,231.178721 C195.630183,232.614755 195.135994,234.448837 193.699961,235.275259 L183.296382,241.260517 C181.860135,242.086569 180.02618,241.591909 179.200128,240.155662 C178.374076,238.719416 178.868736,236.88546 180.304982,236.059408 L190.707223,230.074921 C192.143256,229.248499 193.977339,229.742687 194.803761,231.178721 Z M215.604467,219.192325 C216.432434,220.627468 215.940219,222.462082 214.505076,223.290048 L204.107133,229.28356 C202.67142,230.11054 200.837146,229.617065 200.010165,228.181353 C199.183185,226.745641 199.67666,224.911366 201.112372,224.084386 L211.506743,218.092933 C212.941887,217.264967 214.7765,217.757181 215.604467,219.192325 Z M224.021391,205.502017 C224.810826,204.045323 226.631674,203.504404 228.088368,204.293839 L228.543336,204.539606 L228.700906,204.630726 C232.563867,207.023847 233.97836,211.9942 230.314697,214.135535 L224.897022,217.284882 C223.463363,218.115417 221.627871,217.626488 220.797336,216.192829 C219.966801,214.75917 220.45573,212.923679 221.889389,212.093144 L227.286173,208.955956 C226.832148,209.221324 226.536143,209.630925 226.423738,210.045022 C226.361428,210.27457 226.366567,210.442623 226.39507,210.542779 C226.352044,210.391592 226.092994,210.073178 225.541094,209.731274 L227.121,207.181 L225.698664,209.822394 L225.229569,209.568995 C223.772875,208.779559 223.231955,206.958711 224.021391,205.502017 Z M215.989086,191.765311 C216.816527,193.200758 216.323639,195.035191 214.888192,195.862631 L213.50795,196.658259 C213.288052,196.784985 213.183725,196.865684 213.179921,196.856144 L213.184401,196.846401 C213.384345,196.552092 213.480933,196.092991 213.380507,195.654964 C213.353366,195.536581 213.317233,195.440283 213.279466,195.366384 L213.241427,195.299964 C213.237666,195.294138 213.260646,195.321288 213.314602,195.373006 C213.508493,195.558856 213.831561,195.791502 214.276504,196.050709 L214.620308,196.249741 L216.757443,197.59508 C217.153924,197.84361 217.533474,198.080837 217.899037,198.308594 C219.305289,199.184734 219.735029,201.034978 218.858889,202.44123 C217.98275,203.847482 216.132505,204.277223 214.726253,203.401083 L211.415692,201.322259 L213.018,198.786 L211.561366,201.408636 C206.715883,198.717413 205.689163,194.239165 210.511759,191.459909 L211.891766,190.664416 C213.327214,189.836976 215.161646,190.329863 215.989086,191.765311 Z M236.782974,179.781731 C237.610363,181.217208 237.11741,183.051623 235.681934,183.879012 L225.284516,189.8705 C223.848984,190.697794 222.014602,190.20472 221.187308,188.769188 C220.360014,187.333657 220.853088,185.499274 222.28862,184.67198 L232.685693,178.680691 C234.12117,177.853302 235.955585,178.346254 236.782974,179.781731 Z M255.303035,167.002555 C256.959557,167.035719 258.275549,168.405481 258.242385,170.062003 C258.210406,171.659364 256.935595,172.940083 255.359277,172.99979 L255.182937,173.001353 C254.670053,172.991085 254.287614,173.087946 254.143229,173.176209 L246.069973,177.856886 C244.636841,178.688329 242.80104,178.200564 241.969597,176.767432 C241.138153,175.3343 241.625918,173.498499 243.05905,172.667055 L251.049216,168.036454 C252.136111,167.357246 253.665951,166.96978 255.303035,167.002555 Z M277.26026,178.295252 C278.842539,178.786738 279.726802,180.467857 279.235316,182.050136 C278.743829,183.632415 277.062711,184.516678 275.480431,184.025192 C274.825425,183.821734 274.214068,183.567111 273.702193,183.288095 L273.594416,183.226421 L264.447164,177.754989 C263.02401,176.906579 262.558089,175.065112 263.4065,173.641959 C264.254911,172.218806 266.096377,171.752885 267.51953,172.601295 L276.681584,178.081579 L275.138,180.654 L276.573807,178.019905 C276.696935,178.08702 276.878947,178.165993 277.09358,178.240482 L277.26026,178.295252 Z M296.348837,169.011884 C297.786868,168.188943 299.619749,168.687572 300.44269,170.125603 C301.265631,171.563635 300.767002,173.396515 299.32897,174.219456 L291.28771,178.834624 C290.459675,179.311481 289.669908,179.766949 288.934863,180.191617 C287.50023,181.020469 285.665313,180.529386 284.836462,179.094753 C284.00761,177.66012 284.498693,175.825204 285.933326,174.996352 L294.286866,170.192717 C294.975814,169.797899 295.665448,169.402966 296.348837,169.011884 Z M321.614205,180.463728 C320.756086,181.881048 318.911477,182.33437 317.494157,181.47625 L307.228244,175.245568 C305.813434,174.383316 305.365497,172.537392 306.22775,171.122582 C307.090002,169.707772 308.935926,169.259836 310.350736,170.122089 L320.601683,176.343679 C322.019003,177.201799 322.472325,179.046408 321.614205,180.463728 Z M338.997277,171.179332 C340.431055,170.349003 342.266477,170.838195 343.096806,172.271973 C343.927135,173.705751 343.437942,175.541173 342.004164,176.371502 L332.66594,181.806972 C332.251329,182.05157 331.922403,182.247105 331.681534,182.392211 C330.262315,183.247186 328.418716,182.789775 327.563741,181.370556 C326.708766,179.951336 327.166176,178.107738 328.585396,177.252763 L330.969959,175.8449 C332.813566,174.76588 335.509704,173.199054 338.997277,171.179332 Z M363.880397,160.279247 C364.707718,161.714763 364.214679,163.549155 362.779163,164.376476 L352.386502,170.370286 C350.951547,171.19858 349.116822,170.706784 348.288528,169.271829 C347.460235,167.836874 347.952031,166.002149 349.386985,165.173855 L359.783168,159.178014 C361.218683,158.350692 363.053075,158.843731 363.880397,160.279247 Z M384.68204,148.305477 C385.508208,149.741657 385.013696,151.575652 383.577517,152.401821 L373.177495,158.386913 C371.741612,159.213596 369.907439,158.719742 369.080756,157.283858 C368.254073,155.847975 368.747928,154.013802 370.183811,153.187119 L380.585696,147.200955 C382.021876,146.374786 383.855871,146.869298 384.68204,148.305477 Z M404.942149,144.425965 C406.377292,145.253932 406.869507,147.088545 406.041541,148.523689 C405.213574,149.958832 403.378961,150.451047 401.943817,149.623081 L396.210837,146.321303 C395.66209,146.007525 394.609247,146.097978 394.004641,146.400282 L392.663,143.717 L394.157899,146.318015 L393.980848,146.419773 C392.544354,147.245395 390.710547,146.750184 389.884926,145.31369 C389.089883,143.930399 389.519644,142.178682 390.835291,141.313581 L391.168101,141.115985 L391.321359,141.033718 C393.47684,139.955978 396.424316,139.671971 398.922661,140.967472 L399.188566,141.112356 C399.912229,141.525932 401.934604,142.690846 404.942149,144.425965 Z M427.497669,150.464307 C428.339862,151.891149 427.86591,153.730565 426.439068,154.572758 L423.420065,156.363732 C420.240338,158.270858 416.490412,157.969856 413.892431,156.522866 L412.333833,155.622176 C410.899223,154.793286 410.40819,152.958356 411.23708,151.523746 C412.065971,150.089135 413.900901,149.598103 415.335511,150.426993 L416.703385,151.217869 C417.010179,151.401833 417.607452,151.600817 418.222924,151.660926 C418.98968,151.735809 419.6968,151.600406 420.333231,151.21869 L423.389219,149.405707 C424.816061,148.563514 426.655476,149.037466 427.497669,150.464307 Z M441.591103,142.201565 C442.428055,143.631487 441.947357,145.469152 440.517435,146.306103 L436.7779,148.496719 C435.348541,149.334633 433.510554,148.855172 432.67264,147.425814 C431.834726,145.996455 432.314186,144.158467 433.743545,143.320553 L437.486565,141.127897 C438.916487,140.290945 440.754152,140.771643 441.591103,142.201565 Z" id="Path" fill="#5B7B84" fill-rule="nonzero"></path>
            <ellipse id="Oval" fill="#F0C279" fill-rule="nonzero" cx="254.319" cy="168.901" rx="20.1472" ry="11.7526"></ellipse>
            <path d="M274.466,26.8628 L234.172,26.8628 L234.172,168.824 C234.243,162.369 243.236,157.149 254.319,157.149 C265.446,157.149 274.466,162.41 274.466,168.901 C274.466,169.013 274.463,169.125 274.458,169.237 L274.466,169.237 L274.466,26.8628 Z M234.179,169.237 C234.175,169.151 234.173,169.065 234.172,168.978 L234.172,169.237 L234.179,169.237 Z" id="Shape" fill="url(#linearGradient-17)"></path>
            <ellipse id="Oval" fill="#F0C279" fill-rule="nonzero" cx="443.032" cy="142.038" rx="20.1472" ry="11.7526"></ellipse>
            <path d="M463.179,0 L422.885,0 L422.885,142.374 L422.893,142.374 C422.888,142.262 422.885,142.15 422.885,142.038 C422.885,135.547 431.905,130.286 443.032,130.286 C454.144,130.286 463.155,135.533 463.179,142.012 L463.179,0 Z M463.179,142.064 C463.179,142.168 463.176,142.271 463.171,142.374 L463.179,142.374 L463.179,142.064 Z" id="Shape" fill="url(#linearGradient-18)"></path>
            <ellipse id="Oval" fill="#F0C279" fill-rule="nonzero" cx="185.147" cy="291.128" rx="20.1472" ry="11.7526"></ellipse>
            <path d="M205.294,149.089 L165,149.089 L165,291.463 L165.008,291.463 C165.003,291.352 165,291.24 165,291.128 C165,284.637 174.02,279.375 185.147,279.375 C196.25,279.375 205.256,284.614 205.294,291.086 L205.294,149.089 Z M205.294,291.17 C205.294,291.268 205.291,291.366 205.287,291.463 L205.294,291.463 L205.294,291.17 Z" id="Shape" fill="url(#linearGradient-18)"></path>
            <ellipse id="Oval" fill="#F0C279" fill-rule="nonzero" cx="115.976" cy="303.217" rx="20.1472" ry="11.7526"></ellipse>
            <path d="M136.123,161.178 L95.8281,161.178 L95.8281,303.15 C95.8889,296.69 104.886,291.464 115.975,291.464 C127.102,291.464 136.122,296.725 136.122,303.216 C136.122,303.329 136.12,303.44 136.114,303.552 L136.123,303.552 L136.123,161.178 Z M95.8359,303.552 C95.8316,303.462 95.829,303.372 95.8281,303.282 L95.8281,303.552 L95.8359,303.552 Z" id="Shape" fill="url(#linearGradient-19)"></path>
            <ellipse id="Oval" fill="#F0C279" fill-rule="nonzero" cx="349.012" cy="277.696" rx="20.1472" ry="11.7526"></ellipse>
            <path d="M369.16,135.658 L328.865,135.658 L328.865,277.658 C328.9,271.185 337.907,265.944 349.012,265.944 C360.139,265.944 369.16,271.206 369.16,277.696 C369.16,277.808 369.157,277.92 369.152,278.032 L369.16,278.032 L369.16,135.658 Z M328.873,278.032 C328.868,277.933 328.866,277.834 328.865,277.734 L328.865,278.032 L328.873,278.032 Z" id="Shape" fill="url(#linearGradient-20)"></path>
            <polygon id="Path" fill="url(#linearGradient-21)" fill-rule="nonzero" points="448.403 189.384 456.462 184.683 483.997 200.801 475.938 205.502"></polygon>
            <polygon id="Path" fill="url(#linearGradient-22)" fill-rule="nonzero" points="418.855 197.443 442.696 183.34 470.231 199.458 446.39 213.561"></polygon>
            <polygon id="Path" fill="url(#linearGradient-23)" fill-rule="nonzero" points="420.871 250.162 420.871 237.738 439.339 226.657 483.999 200.801 483.999 213.561"></polygon>
            <polygon id="Path" fill="url(#linearGradient-24)" fill-rule="nonzero" points="446.389 213.561 470.23 199.458 475.939 205.502 439.338 226.656"></polygon>
            <polygon id="Path" fill="url(#linearGradient-25)" fill-rule="nonzero" points="411.804 210.539 418.855 197.443 446.39 213.561 439.338 226.656"></polygon>
            <polygon id="Path" fill="#1F638F" fill-rule="nonzero" points="393.335 234.044 393.335 221.62 420.87 237.737 420.87 250.162"></polygon>
            <polygon id="Path" fill="#E3C88B" fill-rule="nonzero" points="393.335 230.686 393.335 225.649 400.722 230.014 400.722 235.051"></polygon>
            <polygon id="Path" fill="#E3C88B" fill-rule="nonzero" points="413.481 242.439 413.481 237.402 420.869 241.768 420.869 246.804"></polygon>
            <polygon id="Path" fill="url(#linearGradient-26)" fill-rule="nonzero" points="393.335 221.62 411.803 210.539 439.338 226.657 420.87 237.738"></polygon>
            <path d="M468.888,229.248 C471.313,228.912 473.925,227.015 475.621,224.077 C476.518,222.523 477.035,220.892 477.187,219.365 L477.618,219.605 L477.618,214.904 L474.984,213.44 C474.903,213.386 474.82,213.334 474.735,213.285 C471.786,211.583 467.403,213.655 464.945,217.913 C462.486,222.172 462.883,227.004 465.831,228.706 C466.094,228.858 466.368,228.979 466.651,229.072 L468.888,230.35 L468.888,229.248 Z" id="Path" fill="#1B2528"></path>
            <ellipse id="Oval" fill="#304146" fill-rule="nonzero" transform="translate(472.969000, 222.473000) rotate(30.000000) translate(-472.969000, -222.473000) " cx="472.969" cy="222.473" rx="6.16385" ry="8.90334"></ellipse>
            <ellipse id="Oval" fill="#D2DDF0" fill-rule="nonzero" transform="translate(472.969000, 222.599000) rotate(30.000000) translate(-472.969000, -222.599000) " cx="472.969" cy="222.599" rx="3.62749" ry="5.23971"></ellipse>
            <path d="M437.323,247.918 C439.748,247.583 442.36,245.686 444.056,242.748 C444.954,241.193 445.471,239.562 445.622,238.035 L446.054,238.275 L446.054,233.574 L443.415,232.108 C443.336,232.054 443.254,232.004 443.17,231.955 C440.222,230.253 435.839,232.325 433.38,236.584 C430.922,240.842 431.319,245.674 434.267,247.376 C434.53,247.528 434.804,247.65 435.087,247.743 L437.323,249.02 L437.323,247.918 Z" id="Path" fill="#1B2528"></path>
            <ellipse id="Oval" fill="#304146" fill-rule="nonzero" transform="translate(441.405000, 241.143000) rotate(30.000000) translate(-441.405000, -241.143000) " cx="441.405" cy="241.143" rx="6.16385" ry="8.90334"></ellipse>
            <ellipse id="Oval" fill="#D2DDF0" fill-rule="nonzero" transform="translate(441.404000, 241.268000) rotate(30.000000) translate(-441.404000, -241.268000) " cx="441.404" cy="241.268" rx="3.62749" ry="5.23971"></ellipse>
        </g>
    </g>
</svg>