<svg width="162" height="162" viewBox="0 0 162 162" fill="none" xmlns="http://www.w3.org/2000/svg">
<path d="M98.8281 13.1979L113.104 4.87061L161.878 33.4215L147.603 41.7488L98.8281 13.1979Z" fill="url(#paint0_linear)"/>
<path d="M46.4854 27.4732L88.7168 2.49121L137.491 31.0421L95.2597 56.0241L46.4854 27.4732Z" fill="url(#paint1_linear)"/>
<path d="M50.0537 120.858V98.8504L82.7682 79.2217L161.878 33.4214V56.0242L50.0537 120.858Z" fill="url(#paint2_linear)"/>
<path d="M95.2596 56.024L137.491 31.042L147.603 41.7486L82.7686 79.2216L95.2596 56.024Z" fill="url(#paint3_linear)"/>
<path d="M33.9941 50.6702L46.4851 27.4727L95.2595 56.0235L82.7685 79.2211L33.9941 50.6702Z" fill="url(#paint4_linear)"/>
<path d="M1.2793 92.3068V70.2988L50.0537 98.8497V120.858L1.2793 92.3068Z" fill="#1F638F"/>
<path d="M1.2793 86.3587V77.4365L14.3651 85.169V94.0912L1.2793 86.3587Z" fill="#E3C88B"/>
<path d="M36.9688 107.178V98.2559L50.0546 105.988V114.911L36.9688 107.178Z" fill="#E3C88B"/>
<path d="M1.2793 70.2996L33.9938 50.6709L82.7682 79.2218L50.0537 98.8505L1.2793 70.2996Z" fill="#D2DDF0"/>
<path d="M38.4346 87.229L51.4712 79.4072L64.5079 87.2292L51.4712 95.051L38.4346 87.229Z" fill="#B5C3DC"/>
<path d="M53.4258 78.104L66.4624 70.2822L79.4991 78.1042L66.4624 85.926L53.4258 78.104Z" fill="#B5C3DC"/>
<path d="M22.7891 78.1037L47.2328 63.1118L60.2695 70.9338L35.8257 85.9257L22.7891 78.1037Z" fill="#B5C3DC"/>
<path d="M7.14551 68.978L20.1822 61.1562L33.2188 68.9782L20.1822 76.8L7.14551 68.978Z" fill="#B5C3DC"/>
<path d="M22.1387 59.8526L35.1753 52.0308L48.212 59.8528L35.1753 67.6746L22.1387 59.8526Z" fill="#B5C3DC"/>
<path d="M7.79785 45.5859L33.994 50.7269L82.7684 79.2777L56.5722 74.1368L7.79785 45.5859Z" fill="url(#paint5_linear)"/>
<path fill-rule="evenodd" clip-rule="evenodd" d="M135.111 83.8117C139.407 83.2178 144.034 79.8568 147.039 74.6526C148.628 71.8995 149.544 69.0109 149.812 66.3061L150.576 66.7305V58.4032L145.916 55.8143C145.771 55.7166 145.622 55.6234 145.469 55.535C140.247 52.5199 132.483 56.1908 128.127 63.7341C123.772 71.2773 124.475 79.8366 129.698 82.8517C130.163 83.1204 130.649 83.3361 131.15 83.5006L135.111 85.764V83.8117Z" fill="#1B2528"/>
<ellipse cx="142.342" cy="71.8114" rx="10.9186" ry="15.7713" transform="rotate(30 142.342 71.8114)" fill="#304146"/>
<ellipse cx="142.343" cy="72.0336" rx="6.4257" ry="9.28157" transform="rotate(30 142.343 72.0336)" fill="#D2DDF0"/>
<path fill-rule="evenodd" clip-rule="evenodd" d="M79.2003 116.883C83.496 116.289 88.1232 112.928 91.1278 107.723C92.7176 104.97 93.6333 102.081 93.9013 99.3758L94.6653 99.8002V91.4729L89.9955 88.8785C89.8533 88.7832 89.7073 88.6922 89.5577 88.6058C84.3354 85.5907 76.5714 89.2616 72.2163 96.8049C67.8612 104.348 68.5642 112.907 73.7864 115.922C74.2534 116.192 74.7407 116.408 75.244 116.573L79.2003 118.834V116.883Z" fill="#1B2528"/>
<ellipse cx="86.4295" cy="104.882" rx="10.9186" ry="15.7713" transform="rotate(30 86.4295 104.882)" fill="#304146"/>
<ellipse cx="86.4309" cy="105.105" rx="6.4257" ry="9.28157" transform="rotate(30 86.4309 105.105)" fill="#D2DDF0"/>
<path d="M110 120.299L136.299 105L154 114.989L127.701 130.287L110 120.299Z" fill="url(#paint6_linear)"/>
<path d="M110 124.345V120.299L127.701 130.287V134.333L110 124.345Z" fill="url(#paint7_linear)"/>
<path d="M110 135.724V124.345L127.701 134.333V145.713L110 135.724Z" fill="url(#paint8_linear)"/>
<path d="M127.701 130.288L154 114.989L154 119.035L127.701 134.333L127.701 130.288Z" fill="url(#paint9_linear)"/>
<path d="M127.701 134.333L154 119.034V130.413L127.701 145.712V134.333Z" fill="url(#paint10_linear)"/>
<path d="M127.701 134.333L154 119.034V130.413L127.701 145.712V134.333Z" fill="url(#paint11_linear)"/>
<path d="M139.586 126.494L145.908 122.828V127.506L139.586 131.173V126.494Z" fill="url(#paint12_linear)"/>
<path d="M138.701 125.988L139.586 126.494V131.172L138.701 130.667V125.988Z" fill="url(#paint13_linear)"/>
<path d="M138.701 125.988L145.023 122.322L145.908 122.828L139.586 126.494L138.701 125.988Z" fill="url(#paint14_linear)"/>
<path d="M134.782 110.241L136.805 111.378V116.056L134.782 114.919V110.241Z" fill="url(#paint15_linear)"/>
<path fill-rule="evenodd" clip-rule="evenodd" d="M137.563 110.942L128.333 116.253V120.931L129.471 120.276V116.632L136.805 112.459V116.057L137.563 115.621V110.942Z" fill="url(#paint16_linear)"/>
<path d="M126.311 115.115L128.334 116.252V120.93L126.311 119.793V115.115Z" fill="url(#paint17_linear)"/>
<path d="M126.311 115.115L135.54 109.804L137.563 110.942L128.334 116.253L126.311 115.115Z" fill="url(#paint18_linear)"/>
<defs>
<linearGradient id="paint0_linear" x1="145.347" y1="11.017" x2="113.839" y2="33.7052" gradientUnits="userSpaceOnUse">
<stop stop-color="#1D5F8A"/>
<stop offset="1" stop-color="#347DAC"/>
</linearGradient>
<linearGradient id="paint1_linear" x1="118.457" y1="8.43931" x2="69.6829" y2="43.5331" gradientUnits="userSpaceOnUse">
<stop stop-color="#1D5F8A"/>
<stop offset="1" stop-color="#347DAC"/>
</linearGradient>
<linearGradient id="paint2_linear" x1="55.407" y1="103.014" x2="164.83" y2="81.7238" gradientUnits="userSpaceOnUse">
<stop stop-color="#17547C"/>
<stop offset="1" stop-color="#2871A2"/>
</linearGradient>
<linearGradient id="paint3_linear" x1="86.9322" y1="52.4551" x2="150.121" y2="35.586" gradientUnits="userSpaceOnUse">
<stop stop-color="#CBF1FB"/>
<stop offset="1" stop-color="#F8FEFF"/>
</linearGradient>
<linearGradient id="paint4_linear" x1="69.6827" y1="25.0934" x2="52.4332" y2="66.7301" gradientUnits="userSpaceOnUse">
<stop stop-color="#CBF1FB"/>
<stop offset="1" stop-color="#F8FEFF"/>
</linearGradient>
<linearGradient id="paint5_linear" x1="61.4025" y1="58.7568" x2="20.3814" y2="87.9787" gradientUnits="userSpaceOnUse">
<stop stop-color="#1D5F8A"/>
<stop offset="1" stop-color="#347DAC"/>
</linearGradient>
<linearGradient id="paint6_linear" x1="144.797" y1="107.81" x2="121.593" y2="124.899" gradientUnits="userSpaceOnUse">
<stop stop-color="#E28159"/>
<stop offset="1" stop-color="#FCAA88"/>
</linearGradient>
<linearGradient id="paint7_linear" x1="123.999" y1="121.858" x2="112.794" y2="127.84" gradientUnits="userSpaceOnUse">
<stop stop-color="#DB7A52"/>
<stop offset="1" stop-color="#E79D7F"/>
</linearGradient>
<linearGradient id="paint8_linear" x1="123.999" y1="126.719" x2="111.177" y2="131.215" gradientUnits="userSpaceOnUse">
<stop stop-color="#F28B61"/>
<stop offset="1" stop-color="#FEB496"/>
</linearGradient>
<linearGradient id="paint9_linear" x1="148.5" y1="117.138" x2="132.429" y2="126.385" gradientUnits="userSpaceOnUse">
<stop stop-color="#DB7A52"/>
<stop offset="1" stop-color="#E79D7F"/>
</linearGradient>
<linearGradient id="paint10_linear" x1="148.5" y1="121.998" x2="130.28" y2="129.6" gradientUnits="userSpaceOnUse">
<stop stop-color="#F28B61"/>
<stop offset="1" stop-color="#FEB496"/>
</linearGradient>
<linearGradient id="paint11_linear" x1="148.5" y1="121.998" x2="130.28" y2="129.6" gradientUnits="userSpaceOnUse">
<stop stop-color="#F28B61"/>
<stop offset="1" stop-color="#FEB496"/>
</linearGradient>
<linearGradient id="paint12_linear" x1="142.747" y1="122.828" x2="142.747" y2="131.173" gradientUnits="userSpaceOnUse">
<stop stop-color="#CFAC60"/>
<stop offset="1" stop-color="#E3C88B"/>
</linearGradient>
<linearGradient id="paint13_linear" x1="141.989" y1="126.747" x2="135.603" y2="126.937" gradientUnits="userSpaceOnUse">
<stop stop-color="#CFAC60"/>
<stop offset="1" stop-color="#E3C88B"/>
</linearGradient>
<linearGradient id="paint14_linear" x1="142.305" y1="122.322" x2="142.305" y2="126.494" gradientUnits="userSpaceOnUse">
<stop stop-color="#CFAC60"/>
<stop offset="1" stop-color="#E3C88B"/>
</linearGradient>
<linearGradient id="paint15_linear" x1="136.382" y1="110.887" x2="134.772" y2="111.124" gradientUnits="userSpaceOnUse">
<stop stop-color="#1D5F8A"/>
<stop offset="1" stop-color="#347DAC"/>
</linearGradient>
<linearGradient id="paint16_linear" x1="135.632" y1="112.052" x2="129.121" y2="114.599" gradientUnits="userSpaceOnUse">
<stop stop-color="#1D5F8A"/>
<stop offset="1" stop-color="#347DAC"/>
</linearGradient>
<linearGradient id="paint17_linear" x1="127.91" y1="115.761" x2="126.3" y2="115.998" gradientUnits="userSpaceOnUse">
<stop stop-color="#1D5F8A"/>
<stop offset="1" stop-color="#347DAC"/>
</linearGradient>
<linearGradient id="paint18_linear" x1="135.21" y1="110.521" x2="129.287" y2="114.895" gradientUnits="userSpaceOnUse">
<stop stop-color="#1D5F8A"/>
<stop offset="1" stop-color="#347DAC"/>
</linearGradient>
</defs>
</svg>
